<?xml version="1.0" standalone="no"?>
<!DOCTYPE svg PUBLIC "-//W3C//DTD SVG 20010904//EN"
 "http://www.w3.org/TR/2001/REC-SVG-20010904/DTD/svg10.dtd">
<svg version="1.0" xmlns="http://www.w3.org/2000/svg"
 width="300.000000pt" height="300.000000pt" viewBox="0 0 300.000000 300.000000"
 preserveAspectRatio="xMidYMid meet">
<metadata>
Created by potrace 1.14, written by Peter Selinger 2001-2017
</metadata>
<g transform="translate(0.000000,300.000000) scale(0.100000,-0.100000)"
fill="#000000" stroke="none">
<path d="M882 2989 c-54 -20 -69 -99 -26 -140 l26 -24 561 -2 c669 -2 806 -6
867 -29 25 -9 54 -18 64 -20 37 -7 162 -86 218 -137 105 -96 173 -209 210
-346 20 -73 21 -106 23 -731 1 -360 3 -663 4 -672 3 -44 76 -76 121 -53 52 27
51 10 47 740 -2 374 -6 689 -9 700 -3 11 -9 34 -13 50 -31 133 -115 288 -212
390 -57 60 -146 135 -161 135 -6 0 -12 3 -14 8 -4 10 -148 85 -148 76 0 -3 -6
-2 -12 4 -16 12 -106 38 -168 48 -60 9 -1352 12 -1378 3z"/>
<path d="M378 2464 c-175 -41 -316 -181 -363 -360 -22 -87 -22 -1653 0 -1729
51 -170 163 -289 326 -346 l64 -23 817 -1 c874 -1 862 -2 974 49 54 25 75 40
133 97 69 68 98 115 127 214 16 55 18 125 18 875 0 806 0 816 -22 885 -53 173
-186 298 -361 339 -86 20 -1627 20 -1713 0z m542 -709 c93 -15 146 -47 184
-108 27 -44 30 -56 30 -135 0 -123 -14 -166 -70 -219 l-35 -33 24 -9 c37 -14
84 -64 102 -108 17 -40 21 -143 9 -209 -20 -109 -109 -200 -215 -219 -18 -3
-36 -8 -41 -11 -9 -6 -105 -6 -164 0 -92 9 -189 77 -228 161 -10 19 -19 58
-20 86 -3 43 0 53 19 65 12 8 38 15 56 16 40 1 99 -11 100 -20 12 -111 54
-147 167 -146 102 1 146 48 145 159 -1 107 -27 139 -128 155 -69 11 -85 29
-80 89 4 51 11 57 74 65 57 7 86 26 99 64 14 40 7 128 -12 157 -26 40 -111 53
-186 30 -19 -6 -41 -40 -46 -74 -9 -49 -15 -59 -45 -71 -35 -15 -106 -8 -126
13 -24 24 -18 101 12 163 40 82 117 131 220 141 27 3 51 6 53 8 3 2 63 -3 102
-10z m810 1 c103 -18 191 -81 225 -164 24 -55 29 -124 28 -387 0 -268 -8 -316
-64 -386 -70 -88 -154 -112 -396 -113 -163 0 -174 1 -195 22 l-23 21 0 485 c0
456 1 485 19 504 10 12 28 22 40 24 41 6 321 1 366 -6z"/>
<path d="M1494 1237 l1 -362 95 -2 c117 -2 156 14 185 72 18 37 20 61 19 290
0 275 -4 299 -58 338 -26 18 -46 22 -137 24 l-106 3 1 -363z"/>
</g>
</svg>
